<?xml version="1.0" encoding="UTF-8" standalone="no"?>
<!-- Created with Inkscape (http://www.inkscape.org/) -->

<svg
   width="126.49257mm"
   height="173.66518mm"
   viewBox="0 0 126.49257 173.66518"
   version="1.1"
   id="svg1"
   xml:space="preserve"
   xmlns:inkscape="http://www.inkscape.org/namespaces/inkscape"
   xmlns:sodipodi="http://sodipodi.sourceforge.net/DTD/sodipodi-0.dtd"
   xmlns="http://www.w3.org/2000/svg"
   xmlns:svg="http://www.w3.org/2000/svg"><sodipodi:namedview
     id="namedview1"
     pagecolor="#ffffff"
     bordercolor="#000000"
     borderopacity="0.25"
     inkscape:showpageshadow="2"
     inkscape:pageopacity="0.0"
     inkscape:pagecheckerboard="0"
     inkscape:deskcolor="#d1d1d1"
     inkscape:document-units="mm" /><defs
     id="defs1" /><g
     inkscape:label="Layer 1"
     inkscape:groupmode="layer"
     id="layer1"
     transform="translate(-73.801149,-25.825261)"><rect
       style="fill:#8a592e;fill-opacity:1;stroke:#000000;stroke-width:0;stroke-dasharray:none"
       id="rect1-8"
       width="80.925682"
       height="106.92017"
       x="92.380775"
       y="72.73233"
       transform="matrix(1.5630707,0,0,1.5630707,-70.596532,-81.319135)" /><rect
       style="fill:#f9f9f9;stroke:#000000;stroke-width:0;stroke-dasharray:none"
       id="rect1"
       width="75.301163"
       height="107.40926"
       x="95.559845"
       y="72.24324"
       transform="matrix(1.3778492,0,0,1.3778492,-45.923097,-57.99088)"
       inkscape:export-filename="clipboard.png"
       inkscape:export-xdpi="96"
       inkscape:export-ydpi="96" /><path
       id="rect1-7"
       style="fill:#f9f9f9;stroke:#000000;stroke-width:0"
       d="M 83.081451,42.248943 H 186.8351 V 190.24272 H 83.081451 Z"
       sodipodi:nodetypes="ccccc" /><path
       id="path69"
       style="fill:#999999;fill-opacity:1;stroke:#000000;stroke-width:0;stroke-dasharray:none"
       d="m 121.90901,25.825262 c -5.52306,5e-5 -10.00037,4.477361 -10.00042,10.00042 2e-5,2.51773 -5.04556,7.312852 -11.29598,8.551798 -4.389322,0.870045 -2.254716,6.704872 -2.254716,6.704872 l 72.464626,-0.57336 c 0.39598,-0.121588 2.31255,-6.078154 -1.39753,-6.893606 -6.51386,-1.431707 -11.3291,-0.990298 -12.06892,-7.789704 -5e-5,-5.523258 -4.47767,-10.000652 -10.00093,-10.00042 z"
       sodipodi:nodetypes="ccsccsccc" /><circle
       style="fill:#f9f9f9;fill-opacity:1;stroke:#808080;stroke-width:0;stroke-dasharray:none"
       id="path71"
       cx="134.95827"
       cy="32.501781"
       r="3.851548" /><path
       style="fill:#a36937;fill-opacity:1;stroke:#808080;stroke-width:0;stroke-dasharray:none"
       d="m 195.1332,169.52316 c 0,0 -0.57336,-14.52509 -0.38224,-22.361"
       id="path72" /><path
       style="fill:#a36937;fill-opacity:1;stroke:#808080;stroke-width:0;stroke-dasharray:none"
       d="m 197.17222,146.35882 c 0,0 -6.21653,-12.8385 -2.83798,-28.10954"
       id="path73" /><path
       style="fill:#a36937;fill-opacity:1;stroke:#808080;stroke-width:0;stroke-dasharray:none"
       d="m 193.52338,96.896834 c 0,0 1.48657,7.973376 1.62171,11.622216"
       id="path74" /><path
       style="fill:#a36937;fill-opacity:1;stroke:#808080;stroke-width:0;stroke-dasharray:none"
       d="m 192.17196,109.60018 c 0,0 -0.94599,3.91912 -0.13514,7.83824"
       id="path75" /><path
       style="fill:#a36937;fill-opacity:1;stroke:#808080;stroke-width:0;stroke-dasharray:none"
       d="m 196.63165,123.11439 c 0.27029,-13.51421 1.35142,-17.83875 1.35142,-17.83875"
       id="path76" /><path
       style="fill:#a36937;fill-opacity:1;stroke:#808080;stroke-width:0;stroke-dasharray:none"
       d="m 192.98282,141.76399 c 0,0 1.21627,11.75735 -0.54057,15.54133"
       id="path77" /><path
       style="fill:#a36937;fill-opacity:1;stroke:#808080;stroke-width:0;stroke-dasharray:none"
       d="m 197.4425,172.9818 c 0,0 0.81086,-12.02765 0.27029,-16.75762"
       id="path78" /><path
       style="fill:#a36937;fill-opacity:1;stroke:#808080;stroke-width:0;stroke-dasharray:none"
       d="m 193.11796,170.00867 c 1.89199,18.78474 0.67571,24.46071 0.67571,24.46071"
       id="path79" /><path
       style="fill:#a36937;fill-opacity:1;stroke:#808080;stroke-width:0;stroke-dasharray:none"
       d="m 197.03708,178.11719 c 0,0 1.35142,4.59483 -0.27029,7.29767"
       id="path80" /><path
       style="fill:#a36937;fill-opacity:1;stroke:#808080;stroke-width:0;stroke-dasharray:none"
       d="m 196.36137,192.44225 c 0,0 1.35142,4.05426 0,4.59483"
       id="path81" /><path
       style="fill:#a36937;fill-opacity:1;stroke:#808080;stroke-width:0;stroke-dasharray:none"
       d="m 193.79367,55.408231 c 0,0 3.64883,7.162528 0.54057,16.352187"
       id="path82" /><path
       style="fill:#a36937;fill-opacity:1;stroke:#808080;stroke-width:0;stroke-dasharray:none"
       d="m 197.03708,86.220614 c 0,0 -1.89199,-18.919883 1.21628,-29.596104"
       id="path83" /><path
       style="fill:#a36937;fill-opacity:1;stroke:#808080;stroke-width:0;stroke-dasharray:none"
       d="m 192.98282,78.112092 c 0,0 -1.89199,2.432556 0.40542,9.459942"
       id="path84" /><path
       style="fill:#a36937;fill-opacity:1;stroke:#808080;stroke-width:0;stroke-dasharray:none"
       d="m 195.55052,97.572543 c 0,0 -0.946,-4.324543 0.6757,-7.703095"
       id="path85" /><path
       style="fill:#a36937;fill-opacity:1;stroke:#808080;stroke-width:0;stroke-dasharray:none"
       d="m 199.19935,92.166862 c 0,0 -0.94599,5.27054 -2.02713,7.162528"
       id="path86" /><path
       style="fill:#a36937;fill-opacity:1;stroke:#808080;stroke-width:0;stroke-dasharray:none"
       d="m 192.17196,40.67775 c 0,0 1.75685,1.35142 1.62171,5.405681"
       id="path87" /><path
       style="fill:#a36937;fill-opacity:1;stroke:#808080;stroke-width:0;stroke-dasharray:none"
       d="m 197.98307,51.083686 c -1.08113,2.162272 -1.35142,-9.595083 -1.75685,-11.081645"
       id="path88" /><path
       style="fill:#a36937;fill-opacity:1;stroke:#808080;stroke-width:0;stroke-dasharray:none"
       d="m 193.38824,48.65113 c 0,0 1.75685,3.513693 2.16228,5.135396"
       id="path89" /><path
       style="fill:#a36937;fill-opacity:1;stroke:#808080;stroke-width:0;stroke-dasharray:none"
       d="m 167.44097,35.812637 c 0,0 12.02764,-0.675709 15.27105,2.027132"
       id="path90" /><path
       style="fill:#a36937;fill-opacity:1;stroke:#808080;stroke-width:0;stroke-dasharray:none"
       d="m 186.22571,38.515477 c 9.45995,-2.567699 11.21679,-0.405426 11.21679,-0.405426"
       id="path91" /><path
       style="fill:#a36937;fill-opacity:1;stroke:#808080;stroke-width:0;stroke-dasharray:none"
       d="m 180.41461,35.001784 c 8.24366,0.405427 10.40593,1.621706 10.40593,1.621706"
       id="path92" /><path
       style="fill:#a36937;fill-opacity:1;stroke:#808080;stroke-width:0;stroke-dasharray:none"
       d="m 167.17069,38.785762 c 0,0 3.37855,1.216279 7.83824,0"
       id="path93" /><path
       style="fill:#a36937;fill-opacity:1;stroke:#808080;stroke-width:0;stroke-dasharray:none"
       d="m 161.90015,33.244938 c 5.67596,2.027131 8.91937,0.810852 8.91937,0.810852"
       id="path94" /><path
       style="fill:#a36937;fill-opacity:1;stroke:#808080;stroke-width:0;stroke-dasharray:none"
       d="m 76.447877,38.223938 c 0,0 -0.382241,4.204634 1.911196,10.320462"
       id="path95" /><path
       style="fill:#a36937;fill-opacity:1;stroke:#808080;stroke-width:0;stroke-dasharray:none"
       d="m 105.40251,36.408301 8.40926,0.09556"
       id="path96" /><path
       style="fill:#a36937;fill-opacity:1;stroke:#808080;stroke-width:0;stroke-dasharray:none"
       d="M 111.51834,36.312742 C 101.10231,36.59942 94.986484,38.606177 94.986484,38.606177"
       id="path97" /><path
       style="fill:#a36937;fill-opacity:1;stroke:#808080;stroke-width:0;stroke-dasharray:none"
       d="m 92.69305,35.261581 c 0,0 7.166988,0.764479 9.36486,-0.09556"
       id="path98" /><path
       style="fill:#a36937;fill-opacity:1;stroke:#808080;stroke-width:0;stroke-dasharray:none"
       d="m 105.02027,34.305983 c 4.96911,0.955598 5.73359,0 5.73359,0"
       id="path99" /><path
       style="fill:#a36937;fill-opacity:1;stroke:#808080;stroke-width:0;stroke-dasharray:none"
       d="m 102.72683,39.275096 c 0,0 2.77124,-0.4778 3.72684,0"
       id="path100" /><path
       style="fill:#a36937;fill-opacity:1;stroke:#808080;stroke-width:0;stroke-dasharray:none"
       d="M 82.468145,39.657334 C 83.423743,38.988417 91.164091,37.3639 92.501931,38.510617"
       id="path101" /><path
       style="fill:#a36937;fill-opacity:1;stroke:#808080;stroke-width:0;stroke-dasharray:none"
       d="m 76.830115,35.452703 c 0,0 5.63803,-0.191122 9.269304,-0.66892"
       id="path102" /><path
       style="fill:#a36937;fill-opacity:1;stroke:#808080;stroke-width:0;stroke-dasharray:none"
       d="m 79.60135,41.281852 c 0,0 0.4778,-3.249033 2.580116,-4.491312"
       id="path103" /><path
       style="fill:#a36937;fill-opacity:1;stroke:#808080;stroke-width:0;stroke-dasharray:none"
       d="m 79.50579,53.131275 c 0,0 -4.395753,16.149613 -2.866794,20.163125"
       id="path104" /><path
       style="fill:#a36937;fill-opacity:1;stroke:#808080;stroke-width:0;stroke-dasharray:none"
       d="m 77.690154,81.416987 c 0,0 1.624517,-7.262548 2.675675,-10.320462"
       id="path105" /><path
       style="fill:#a36937;fill-opacity:1;stroke:#808080;stroke-width:0;stroke-dasharray:none"
       d="m 81.225868,59.820463 c -0.286679,7.931467 0.860039,11.944979 0.860039,11.944979"
       id="path106" /><path
       style="fill:#a36937;fill-opacity:1;stroke:#808080;stroke-width:0;stroke-dasharray:none"
       d="m 75.970076,47.493242 c 0,0 0.764479,4.300194 0.66892,7.166988"
       id="path107" /><path
       style="fill:#a36937;fill-opacity:1;stroke:#808080;stroke-width:0;stroke-dasharray:none"
       d="m 80.84363,47.779924 c 0,0 -1.33784,2.771235 -0.57336,5.351351"
       id="path108" /><path
       style="fill:#a36937;fill-opacity:1;stroke:#808080;stroke-width:0;stroke-dasharray:none"
       d="m 75.587838,80.07915 c 0,0 1.337836,5.82915 0.668917,9.078185"
       id="path109" /><path
       style="fill:#a36937;fill-opacity:1;stroke:#808080;stroke-width:0;stroke-dasharray:none"
       d="M 79.123552,89.539574 C 79.792469,80.27027 81.416987,78.645752 81.416987,78.645752"
       id="path110" /><path
       style="fill:#a36937;fill-opacity:1;stroke:#808080;stroke-width:0;stroke-dasharray:none"
       d="m 75.683397,75.778957 c 0,0 0.66892,1.815637 -0.286681,2.962354"
       id="path111" /><path
       style="fill:#a36937;fill-opacity:1;stroke:#808080;stroke-width:0;stroke-dasharray:none"
       d="m 77.021234,90.399612 c 0,0 0.860039,5.064673 -0.191119,8.695947"
       id="path112" /><path
       style="fill:#a36937;fill-opacity:1;stroke:#808080;stroke-width:0;stroke-dasharray:none"
       d="m 79.50579,101.48456 c 0,0 2.388997,-6.402516 0.955599,-9.938228"
       id="path113" /><path
       style="fill:#a36937;fill-opacity:1;stroke:#808080;stroke-width:0;stroke-dasharray:none"
       d="m 77.976832,88.106177 c 0,0 0.191122,3.726834 0.860039,5.351352"
       id="path114" /><path
       style="fill:#a36937;fill-opacity:1;stroke:#808080;stroke-width:0;stroke-dasharray:none"
       d="m 75.396716,102.72683 c 0,0 -1.051158,3.8224 0,6.68919"
       id="path115" /><path
       style="fill:#a36937;fill-opacity:1;stroke:#808080;stroke-width:0;stroke-dasharray:none"
       d="m 76.925674,114.57625 c 0,0 1.433399,-3.53571 1.146718,-9.17374"
       id="path116" /><path
       style="fill:#a36937;fill-opacity:1;stroke:#808080;stroke-width:0;stroke-dasharray:none"
       d="m 77.690154,101.29343 c 0,0 2.866794,4.68244 3.249035,8.98263"
       id="path117" /><path
       style="fill:#a36937;fill-opacity:1;stroke:#808080;stroke-width:0;stroke-dasharray:none"
       d="m 79.60135,122.7944 c 0,0 2.197878,-9.84267 1.624518,-10.60714"
       id="path118" /><path
       style="fill:#a36937;fill-opacity:1;stroke:#808080;stroke-width:0;stroke-dasharray:none"
       d="m 76.925674,114.48069 c 1.433399,11.08495 2.866795,12.23166 2.866795,12.23166"
       id="path119" /><path
       style="fill:#a36937;fill-opacity:1;stroke:#808080;stroke-width:0;stroke-dasharray:none"
       d="m 75.778957,119.54537 c 0,0 1.146717,3.34459 0.860039,7.16698"
       id="path120" /><path
       style="fill:#a36937;fill-opacity:1;stroke:#808080;stroke-width:0;stroke-dasharray:none"
       d="m 79.60135,127.95463 c 0,0 1.815637,3.53572 -0.764479,8.12259"
       id="path121" /><path
       style="fill:#a36937;fill-opacity:1;stroke:#808080;stroke-width:0;stroke-dasharray:none"
       d="m 76.256755,128.71911 c 0.764479,10.12935 1.911199,13.18726 1.911199,13.18726"
       id="path122" /><path
       style="fill:#a36937;fill-opacity:1;stroke:#808080;stroke-width:0;stroke-dasharray:none"
       d="m 81.130308,137.3195 c 0,0 -1.051158,3.34459 -3.153476,8.02702"
       id="path123" /><path
       style="fill:#a36937;fill-opacity:1;stroke:#808080;stroke-width:0;stroke-dasharray:none"
       d="m 76.543436,141.71525 c 0,0 -0.764479,4.77799 0.191119,8.40927"
       id="path124" /><path
       style="fill:#a36937;fill-opacity:1;stroke:#808080;stroke-width:0;stroke-dasharray:none"
       d="m 78.072392,154.32915 c 0,0 1.05116,-0.86004 2.102318,-7.16699"
       id="path125" /><path
       style="fill:#a36937;fill-opacity:1;stroke:#808080;stroke-width:0;stroke-dasharray:none"
       d="m 76.447877,154.04247 c 0,0 0.477797,9.46042 -1.14672,9.7471"
       id="path126" /><path
       style="fill:#a36937;fill-opacity:1;stroke:#808080;stroke-width:0;stroke-dasharray:none"
       d="m 79.983591,167.32529 c 0,0 -0.764479,-6.59363 0,-7.54923"
       id="path127" /><path
       style="fill:#a36937;fill-opacity:1;stroke:#808080;stroke-width:0;stroke-dasharray:none"
       d="m 81.703668,152.22683 c 0,0 -2.293437,2.67568 -1.433398,4.39575"
       id="path128" /><path
       style="fill:#a36937;fill-opacity:1;stroke:#808080;stroke-width:0;stroke-dasharray:none"
       d="m 80.748067,142.95753 c 0,0 -0.477797,3.72683 0.382241,4.49131"
       id="path129" /><path
       style="fill:#a36937;fill-opacity:1;stroke:#808080;stroke-width:0;stroke-dasharray:none"
       d="m 77.403475,176.88127 c 0,0 0.382238,-3.05791 -0.09556,-7.93147"
       id="path130" /><path
       style="fill:#a36937;fill-opacity:1;stroke:#808080;stroke-width:0;stroke-dasharray:none"
       d="m 75.874517,184.33494 c 0,0 4.109074,-4.39575 4.395753,-6.11583"
       id="path131" /><path
       style="fill:#a36937;fill-opacity:1;stroke:#808080;stroke-width:0;stroke-dasharray:none"
       d="m 79.123552,168.66313 c 0,0 -0.4778,2.19787 0.477798,4.58687"
       id="path132" /><path
       style="fill:#a36937;fill-opacity:1;stroke:#808080;stroke-width:0;stroke-dasharray:none"
       d="m 78.072392,187.20174 c 0,0 -1.433396,6.21139 -0.191119,6.97586"
       id="path133" /><path
       style="fill:#a36937;fill-opacity:1;stroke:#808080;stroke-width:0;stroke-dasharray:none"
       d="m 80.27027,190.35521 1.528958,6.30695 -1.14672,0.57336"
       id="path134" /><path
       style="fill:#a36937;fill-opacity:1;stroke:#808080;stroke-width:0;stroke-dasharray:none"
       d="m 75.492278,197.42664 c 0,0 8.122587,2.10231 10.511581,1.05116"
       id="path135" /><path
       style="fill:#a36937;fill-opacity:1;stroke:#808080;stroke-width:0;stroke-dasharray:none"
       d="m 86.672779,192.83977 c 0,0 9.938223,2.48455 10.893821,1.24227"
       id="path136" /><path
       style="fill:#a36937;fill-opacity:1;stroke:#808080;stroke-width:0;stroke-dasharray:none"
       d="m 92.59749,198.66892 c 0,0 6.402509,-1.72008 10.41602,-1.72008"
       id="path137" /><path
       style="fill:#a36937;fill-opacity:1;stroke:#808080;stroke-width:0;stroke-dasharray:none"
       d="m 96.133204,191.31081 c 0,0 5.255796,0.57336 5.829146,2.29344"
       id="path138" /><path
       style="fill:#a36937;fill-opacity:1;stroke:#808080;stroke-width:0;stroke-dasharray:none"
       d="m 87.915056,197.23552 c 1.911199,-0.4778 5.064672,-0.38224 5.064672,-0.38224"
       id="path139" /><path
       style="fill:#a36937;fill-opacity:1;stroke:#808080;stroke-width:0;stroke-dasharray:none"
       d="m 103.01351,194.6554 c 0,0 15.28958,1.9112 16.72297,0.66892"
       id="path140" /><path
       style="fill:#a36937;fill-opacity:1;stroke:#808080;stroke-width:0;stroke-dasharray:none"
       d="m 110.84942,191.59749 8.88706,1.24228"
       id="path141" /><path
       style="fill:#a36937;fill-opacity:1;stroke:#808080;stroke-width:0;stroke-dasharray:none"
       d="m 105.59363,190.92857 c 3.05791,2.29343 4.01351,1.62452 4.01351,1.62452"
       id="path142" /><path
       style="fill:#a36937;fill-opacity:1;stroke:#808080;stroke-width:0;stroke-dasharray:none"
       d="m 113.0473,193.50869 c 0,0 1.91119,-1.05116 3.34459,-0.76448"
       id="path143" /><path
       style="fill:#a36937;fill-opacity:1;stroke:#808080;stroke-width:0;stroke-dasharray:none"
       d="m 108.36486,198.76448 c 0,0 5.92471,-1.24228 6.78475,-0.66892"
       id="path144" /><path
       style="fill:#a36937;fill-opacity:1;stroke:#808080;stroke-width:0;stroke-dasharray:none"
       d="m 106.93147,196.5666 c 0,0 -1.24228,1.72008 14.04729,0.0956"
       id="path145" /><path
       style="fill:#a36937;fill-opacity:1;stroke:#808080;stroke-width:0;stroke-dasharray:none"
       d="m 122.12548,191.69305 c 0,0 14.62066,0.86004 16.81853,2.10231"
       id="path146" /><path
       style="fill:#a36937;fill-opacity:1;stroke:#808080;stroke-width:0;stroke-dasharray:none"
       d="m 128.62355,197.90444 c 0,0 12.6139,0.19112 14.42954,-1.9112"
       id="path147" /><path
       style="fill:#a36937;fill-opacity:1;stroke:#808080;stroke-width:0;stroke-dasharray:none"
       d="m 119.25869,193.41313 c 0,0 2.58011,-1.52896 4.77799,0.0956"
       id="path148" /><path
       style="fill:#a36937;fill-opacity:1;stroke:#808080;stroke-width:0;stroke-dasharray:none"
       d="m 123.75,195.1332 c 0,0 5.54247,-1.62451 7.07143,0.0956"
       id="path149" /><path
       style="fill:#a36937;fill-opacity:1;stroke:#808080;stroke-width:0;stroke-dasharray:none"
       d="m 123.17664,198.19112 c 0,0 1.33784,-0.4778 2.58012,-1.14672"
       id="path150" /><path
       style="fill:#a36937;fill-opacity:1;stroke:#808080;stroke-width:0;stroke-dasharray:none"
       d="m 143.14865,197.90444 c 0,0 8.3137,0.9556 10.32046,-0.19112"
       id="path151" /><path
       style="fill:#a36937;fill-opacity:1;stroke:#808080;stroke-width:0;stroke-dasharray:none"
       d="m 145.1554,192.83977 c 0,0 6.30695,0.66892 9.07819,0.95559"
       id="path152" /><path
       style="fill:#a36937;fill-opacity:1;stroke:#808080;stroke-width:0;stroke-dasharray:none"
       d="m 147.5444,196.27992 c 8.02703,0.0956 9.26931,-1.72008 9.26931,-1.72008"
       id="path153" /><path
       style="fill:#a36937;fill-opacity:1;stroke:#808080;stroke-width:0;stroke-dasharray:none"
       d="m 143.24421,191.31081 c 0,0 18.44305,-0.4778 21.30984,1.24228"
       id="path154" /><path
       style="fill:#a36937;fill-opacity:1;stroke:#808080;stroke-width:0;stroke-dasharray:none"
       d="m 140.75965,193.222 c 0,0 5.82915,1.81564 7.93147,0.19113"
       id="path155" /><path
       style="fill:#a36937;fill-opacity:1;stroke:#808080;stroke-width:0;stroke-dasharray:none"
       d="m 161.01834,197.33108 c 4.01351,0 14.5251,2.389 15.67181,0.86004"
       id="path156" /><path
       style="fill:#a36937;fill-opacity:1;stroke:#808080;stroke-width:0;stroke-dasharray:none"
       d="m 157.48262,196.75772 c 0,0 2.96236,-3.15347 6.40251,-2.19788"
       id="path157" /><path
       style="fill:#a36937;fill-opacity:1;stroke:#808080;stroke-width:0;stroke-dasharray:none"
       d="m 167.22973,192.26641 c 1.62451,0.4778 9.46042,2.10231 11.94498,0.95559"
       id="path158" /><path
       style="fill:#a36937;fill-opacity:1;stroke:#808080;stroke-width:0;stroke-dasharray:none"
       d="m 179.27027,191.50193 c 0,0 6.30695,-0.66892 7.74034,0.66892"
       id="path159" /><path
       style="fill:#a36937;fill-opacity:1;stroke:#808080;stroke-width:0;stroke-dasharray:none"
       d="m 172.10328,195.70656 c -4.20463,-0.66892 -6.68919,-2.00676 -6.68919,-2.00676"
       id="path160" /><path
       style="fill:#a36937;fill-opacity:1;stroke:#808080;stroke-width:0;stroke-dasharray:none"
       d="m 174.49227,196.5666 9.46043,-0.76448"
       id="path161" /><path
       style="fill:#a36937;fill-opacity:1;stroke:#808080;stroke-width:0;stroke-dasharray:none"
       d="m 185.3861,197.5222 1.81564,-2.29344 4.49131,-1.52896"
       id="path162" /><path
       style="fill:#a36937;fill-opacity:1;stroke:#808080;stroke-width:0;stroke-dasharray:none"
       d="m 190.54633,198.19112 c 2.96236,-2.29344 4.49131,-1.33784 4.49131,-1.33784"
       id="path163" /><path
       style="fill:#a36937;fill-opacity:1;stroke:#808080;stroke-width:0;stroke-dasharray:none"
       d="m 176.30791,195.70656 c 1.14672,0.0956 6.68919,-0.4778 7.07143,1.05116"
       id="path164" /><path
       style="fill:#a36937;fill-opacity:1;stroke:#808080;stroke-width:0;stroke-dasharray:none"
       d="m 185.09942,194.36872 c 0,0 2.29344,-0.4778 3.53571,-1.72007"
       id="path165" /></g></svg>
