<?xml version="1.0" encoding="UTF-8" standalone="no"?>
<!-- Created with Inkscape (http://www.inkscape.org/) -->

<svg
   width="68.364326mm"
   height="68.374146mm"
   viewBox="0 0 68.364326 68.374146"
   version="1.1"
   id="svg1"
   inkscape:export-filename="dottedLine.svg"
   inkscape:export-xdpi="96"
   inkscape:export-ydpi="96"
   xmlns:inkscape="http://www.inkscape.org/namespaces/inkscape"
   xmlns:sodipodi="http://sodipodi.sourceforge.net/DTD/sodipodi-0.dtd"
   xmlns="http://www.w3.org/2000/svg"
   xmlns:svg="http://www.w3.org/2000/svg">
  <sodipodi:namedview
     id="namedview1"
     pagecolor="#ffffff"
     bordercolor="#000000"
     borderopacity="0.25"
     inkscape:showpageshadow="2"
     inkscape:pageopacity="0.0"
     inkscape:pagecheckerboard="0"
     inkscape:deskcolor="#d1d1d1"
     inkscape:document-units="mm" />
  <defs
     id="defs1" />
  <g
     inkscape:label="Layer 1"
     inkscape:groupmode="layer"
     id="layer1"
     transform="translate(-51.667791,-86.954389)">
    <path
       id="rect25"
       style="fill:#000000;fill-opacity:1;stroke:#f0e1ad;stroke-width:0;stroke-dasharray:none;stroke-dashoffset:0;stroke-opacity:1"
       d="m 108.93312,88.129662 -7.20491,7.20457 9.8397,9.839708 7.20491,-7.204912 c -0.45998,-4.18031 -5.84778,-9.345772 -9.8397,-9.839366 z m -8.20369,8.262868 -2.150805,2.150801 9.839705,9.839709 2.1508,-2.1508 z m -3.228601,3.176945 -2.150802,2.150805 9.839713,9.83971 2.1508,-2.1508 z m -3.399961,3.224495 -36.854019,36.85367 9.83971,9.83971 36.853671,-36.85367 z m -38.230077,38.53997 -2.558527,9.51818 3.099647,2.87424 9.378628,-2.50482 z m -3.039448,11.30607 -0.591401,2.2004 2.268468,-0.60577 z" />
    <rect
       style="fill:#000000;fill-opacity:1;stroke:#f0e1ad;stroke-width:0;stroke-dasharray:none;stroke-dashoffset:0;stroke-opacity:1"
       id="rect26"
       width="9.8786993"
       height="47.481476"
       x="20.5014"
       y="-170.10577"
       transform="rotate(135)" />
    <path
       id="path26"
       style="fill:#000000;fill-opacity:1;stroke:#f0e1ad;stroke-width:0;stroke-dasharray:none;stroke-dashoffset:0;stroke-opacity:1"
       d="m 59.420777,88.414129 9.235608,9.23561 6.743679,-6.743679 A 14.010307,14.010307 0 0 0 59.420777,88.414129 Z m -6.28679,6.322589 a 14.010307,14.010307 0 0 0 2.616247,16.125362 14.010307,14.010307 0 0 0 19.813572,0 14.010307,14.010307 0 0 0 2.798372,-15.80731 l -6.150381,6.15038 -6.304687,6.30469 z" />
    <path
       id="path26-9"
       style="fill:#000000;fill-opacity:1;stroke:#f0e1ad;stroke-width:0;stroke-dasharray:none;stroke-dashoffset:0;stroke-opacity:1"
       d="m 118.57272,147.57483 -9.23612,-9.2351 6.74331,-6.74405 a 14.010307,14.010307 0 0 1 2.49281,15.97915 z m -6.32222,6.28716 a 14.010307,14.010307 0 0 1 -16.125519,-2.61536 14.010307,14.010307 0 0 1 -0.0013,-19.81356 14.010307,14.010307 0 0 1 15.807149,-2.79925 l -6.15004,6.15072 -6.304333,6.30503 z" />
  </g>
</svg>
