<?xml version="1.0" encoding="UTF-8" standalone="no"?>
<svg
   width="654.04004"
   height="501.00455"
   viewBox="0 0 654.04004 501.00456"
   version="1.1"
   id="svg59"
   sodipodi:docname="jeepTravelTrip.svg"
   inkscape:version="1.3.2 (091e20e, 2023-11-25, custom)"
   xmlns:inkscape="http://www.inkscape.org/namespaces/inkscape"
   xmlns:sodipodi="http://sodipodi.sourceforge.net/DTD/sodipodi-0.dtd"
   xmlns="http://www.w3.org/2000/svg"
   xmlns:svg="http://www.w3.org/2000/svg">
  <defs
     id="defs59" />
  <sodipodi:namedview
     id="namedview59"
     pagecolor="#004b1c"
     bordercolor="#000000"
     borderopacity="0.25"
     inkscape:showpageshadow="2"
     inkscape:pageopacity="0.0"
     inkscape:pagecheckerboard="0"
     inkscape:deskcolor="#d1d1d1"
     showgrid="false"
     inkscape:zoom="1"
     inkscape:cx="215.5"
     inkscape:cy="297.5"
     inkscape:window-width="1920"
     inkscape:window-height="991"
     inkscape:window-x="-9"
     inkscape:window-y="-9"
     inkscape:window-maximized="1"
     inkscape:current-layer="g39" />
  <circle
     cx="320.31531"
     cy="127.10046"
     r="68"
     fill="#ff6884"
     id="circle14"
     style="fill:#e8a17e;fill-opacity:1" />
  <path
     d="m 583.04004,431.16453 v 0 c 0,0.46394 -0.37609,0.84003 -0.84003,0.84003 H 0 v -1.68005 h 582.20001 c 0.46393,0 0.84003,0.37609 0.84003,0.84003 z"
     fill="#e6e6e6"
     id="path15"
     style="fill:#f0e1ad;fill-opacity:1" />
  <path
     d="m 495.3153,431.10046 c 0,38.10765 4,66 -37.5,69 -44.56313,3.22143 -37.5,-30.89235 -37.5,-69 0,-38.10765 -6,-76 37.5,-69 20.44762,3.29042 37.5,30.89235 37.5,69 z"
     fill="#3f3d56"
     id="path16" />
  <ellipse
     cx="432.31531"
     cy="431.10046"
     rx="6"
     ry="48"
     fill="#e6e6e6"
     id="ellipse16" />
  <path
     d="m 194.95337,369.73401 c 0,33.62932 3.52993,58.24382 -33.09308,60.89127 -39.32616,2.84286 -33.09308,-27.26195 -33.09308,-60.89127 0,-33.62932 -5.29489,-67.06864 33.09308,-60.89127 18.04466,2.90374 33.09308,27.26195 33.09308,60.89127 z"
     fill="#3f3d56"
     id="path17" />
  <ellipse
     cx="139.35699"
     cy="369.73401"
     rx="5.2948899"
     ry="42.359138"
     fill="#e6e6e6"
     id="ellipse17" />
  <path
     d="m 251.8153,430.60046 c 0,38.10765 4,66 -37.5,69 -44.56313,3.22143 -37.5,-30.89235 -37.5,-69 0,-38.10765 -6,-76 37.5,-69 20.44762,3.29042 37.5,30.89235 37.5,69 z"
     fill="#3f3d56"
     id="path18" />
  <ellipse
     cx="188.81531"
     cy="430.60046"
     rx="6"
     ry="48"
     fill="#e6e6e6"
     id="ellipse18" />
  <path
     d="M 133.3153,289.10046 V 312.754 l -6.5,10.84646 2,38 1.61812,0.99996 -1.11812,-38.49996 c 11.39322,-4.24158 15.1188,3.57135 14,19 l -2,26 32,20 4,-41 15,-7 16.5,69.5 h 276.44848 c 11.39576,0 20.50201,-9.48262 20.04074,-20.86904 l -3.48923,-86.13096 -9.41339,-9.41339 -8.7202,-100.86462 c -2.17464,-25.15363 -23.50321,-44.29878 -48.74481,-43.75478 l -172.93405,3.72703 c -9.38179,0.20219 -18.65063,2.091 -27.36343,5.57612 l -41.82413,16.72965 -26.99606,26.99606 -4.00394,65.00394 -10.20744,-0.8876 c -7.34262,-0.63849 -14.0392,4.21417 -15.71879,11.39057 l -2.57377,10.99703 z"
     fill="#e6e6e6"
     id="path19"
     style="fill:#f0e1ad;fill-opacity:1" />
  <circle
     cx="222.81531"
     cy="372.60046"
     r="10"
     fill="#3f3d56"
     id="circle19" />
  <circle
     cx="245.81531"
     cy="372.60046"
     r="10"
     fill="#3f3d56"
     id="circle20" />
  <circle
     cx="469.81531"
     cy="372.60046"
     r="10"
     fill="#3f3d56"
     id="circle21" />
  <circle
     cx="492.81531"
     cy="372.60046"
     r="10"
     fill="#3f3d56"
     id="circle22" />
  <path
     d="M 477.21031,278.67174 H 242.11608 c -1.79736,0 -3.47021,-0.71582 -4.71045,-2.0166 -1.24024,-1.30078 -1.87695,-3.00586 -1.79199,-4.80078 l 3.43457,-72.625 c 0.1626,-3.43359 2.98242,-6.1582 6.41895,-6.20215 l 221.98438,-2.85742 c 3.27783,-0.0312 6.12012,2.39941 6.54102,5.68164 l 9.6748,75.48242 c 0.23779,1.85449 -0.33447,3.72363 -1.56982,5.12793 -1.23584,1.4043 -3.01709,2.20996 -4.88721,2.20996 z"
     fill="#fff"
     id="path22"
     style="fill:#ade4f0;fill-opacity:1" />
  <path
     d="m 209.29186,275.10046 h -15.25391 c -1.80957,0 -3.55225,-0.76172 -4.78027,-2.09082 -1.22852,-1.3291 -1.85156,-3.12598 -1.70947,-4.93066 l 4.39062,-55.7207 c 0.24072,-3.05957 2.53076,-5.5 5.56885,-5.93359 l 15.7627,-2.25195 c 1.97363,-0.28027 3.93896,0.3418 5.38916,1.71094 1.45068,1.37012 2.18604,3.29492 2.01807,5.28223 l -4.89893,57.97266 c -0.28711,3.39844 -3.07617,5.96191 -6.48682,5.96191 z"
     fill="#fff"
     id="path23"
     style="fill:#ade4f0;fill-opacity:1" />
  <path
     d="m 174.21276,273.68444 c -0.15771,0 -0.31641,-0.006 -0.4751,-0.0166 l -1.79102,-0.12793 c -1.76904,-0.12695 -3.37305,-0.94336 -4.51562,-2.2998 -1.14258,-1.35742 -1.67432,-3.07617 -1.49805,-4.8418 l 4.92725,-49.27344 c 0.29199,-2.91699 2.51514,-5.29102 5.40771,-5.77344 1.97119,-0.33105 3.95166,0.25098 5.43359,1.59082 1.48242,1.33789 2.25977,3.24902 2.1333,5.24219 l -3.13672,49.40234 c -0.11084,1.74512 -0.89697,3.33984 -2.21436,4.49023 -1.19678,1.0459 -2.69824,1.60742 -4.271,1.60742 z"
     fill="#fff"
     id="path24"
     style="fill:#ade4f0;fill-opacity:1" />
  <path
     d="m 149.40941,374.21435 -2.59412,-56.6139 c 0,0 -6,-8 -10,-6 -4,2 -9.94094,13.12205 -9.94094,13.12205 0,0 11.59412,-0.75984 11.26753,11.55906 -0.32659,12.3189 1.98641,32.24811 1.98641,32.24811 l 9.28112,5.68469 z"
     fill="#cccccc"
     id="path25" />
  <path
     d="m 173.55899,389.00597 1.25631,-42.23622 12.72047,-15.02362 c 0,0 17,-3.67323 16.63976,15.59055 -0.36024,19.26378 5.13976,63.76378 5.13976,63.76378 l -12.43096,-7.80772 c 0,0 -3.06904,-47.69228 -12.06904,-52.69228 -9,-5 -6,-1 -6,-1 l -5.25631,39.40551 z"
     fill="#cccccc"
     id="path26" />
  <path
     d="m 160.31139,280.73229 -9.85571,-5.63184 h 1.07617 c 1.53723,0 2.78345,-1.24622 2.78345,-2.78351 V 247.8839 c 0,-1.53729 -1.24622,-2.78345 -2.78345,-2.78345 h -10.43311 c -1.53723,0 -2.78345,1.24615 -2.78345,2.78345 v 24.43304 c 0,1.53729 1.24622,2.78351 2.78345,2.78351 h 5.32617 l 12.89429,7.36816 0.99219,-1.73633 z"
     fill="#3f3d56"
     id="path27" />
  <rect
     x="243.06624"
     y="256.99881"
     width="15"
     height="7"
     rx="3.5"
     ry="3.5"
     transform="rotate(16.04325)"
     fill="#3f3d56"
     id="rect27" />
  <rect
     x="460.6106"
     y="225.12526"
     width="39.905071"
     height="7"
     rx="3.5"
     ry="3.5"
     transform="rotate(2.47172)"
     fill="#3f3d56"
     id="rect28" />
  <rect
     x="494.4281"
     y="289.72693"
     width="39.905071"
     height="7"
     rx="3.5"
     ry="3.5"
     transform="rotate(2.47172)"
     fill="#3f3d56"
     id="rect29" />
  <circle
     cx="383.81531"
     cy="312.60046"
     r="76"
     fill="#3f3d56"
     id="circle29" />
  <circle
     cx="383.81531"
     cy="312.60046"
     r="45"
     fill="#e6e6e6"
     id="circle30" />
  <g
     id="g30">
    <path
       id="b-455"
       d="m 484.50669,161.66719 c 0.3825,4.43634 2.98158,7.835 5.80485,7.59112 2.82327,-0.24388 4.80114,-4.03757 4.41792,-8.47544 -0.12877,-1.77485 -0.6807,-3.49305 -1.60964,-5.01085 l -1.85803,-18.77649 -8.79267,1.05973 2.7652,18.39779 c -0.65548,1.65501 -0.90499,3.44295 -0.72762,5.21416 z"
       fill="#ffb6b6" />
    <path
       d="m 459.05844,52.97458 c 0,0 9.70152,-2.73271 13.43093,1.89412 3.72941,4.62683 17.63992,50.06358 17.63992,50.06358 l 4.31904,48.90139 -13.77279,-4.16778 -5.36024,-38.56543 -9,-20 -7.25685,-38.12588 z"
       fill="#6c63ff"
       id="path30"
       style="fill:#adc3f0;fill-opacity:1" />
  </g>
  <g
     id="g32">
    <rect
       x="426.32343"
       y="23.557871"
       width="29.567961"
       height="28.03858"
       fill="#2f2e41"
       id="rect30" />
    <circle
       cx="440.79456"
       cy="23.42618"
       r="14.41669"
       fill="#ffb6b6"
       id="circle31" />
    <path
       d="m 433.97031,0.10742 c -9.2141,1.42614 -8.77488,4.84994 -11.72522,6.6273 -5.19787,3.13132 -7.2487,12.17365 -4.50358,18.14056 0.73345,1.59428 2.27988,3.76918 1.52938,6.11751 -0.57613,1.80269 -2.23706,2.86615 -2.54896,3.05875 -2.55294,1.5763 -0.88542,-0.29896 -2.03917,1.01958 -1.27349,1.45539 0.69935,3.51117 -0.50979,6.11751 -1.07186,2.31062 -3.28154,2.11559 -3.56855,3.56855 -0.49423,2.50198 5.17833,7.53269 11.21543,7.13709 5.37522,-0.35222 9.36831,-4.89655 10.70564,-9.17626 0.89575,-2.86684 1.28195,-7.79804 -1.01958,-10.19585 -0.32285,-0.33629 -1.20528,-1.1507 -2.03917,-2.54896 -0.65989,-1.10652 -1.52863,-2.56309 -1.01958,-3.56855 0.54228,-1.07117 2.07974,-0.50737 3.05875,-1.52938 1.32775,-1.386 -0.24979,-3.72767 0,-6.11751 0.42304,-4.04673 6.15684,-8.91384 12.23502,-8.15668 6.89527,0.85891 9.42444,8.35687 9.68606,9.17626 0.54228,1.69827 0.53145,3.34128 0.50979,6.6273 -0.031,4.7157 -0.0505,7.67134 -1.52938,10.70564 -2.12704,4.36423 -4.83693,3.89271 -5.60772,7.13709 -1.20167,5.05847 4.45135,10.13878 5.09792,10.70564 4.79374,4.2023 12.03401,5.46583 13.2546,3.56855 1.09986,-1.70972 -3.72873,-4.36927 -3.56855,-9.68606 0.13877,-4.60749 3.8675,-6.01203 3.05875,-9.17626 -0.89015,-3.4831 -5.6402,-2.68854 -7.64689,-6.6273 -1.87301,-3.67645 1.57879,-5.71625 1.01958,-13.2546 C 457.89673,18.18268 457.39602,13.606 454.44654,9.0717 453.14717,7.0741 451.82564,5.04246 449.34862,3.97378 446.57563,2.7774 438.84432,-0.64695 433.9703,0.10741 Z"
       fill="#2f2e41"
       id="path31" />
    <path
       d="m 427.8528,12.85223 c 0.37401,3.15683 5.11441,4.70388 7.13709,5.09792 0.85667,0.1669 3.75157,0.73084 6.6273,-0.50979 1.0629,-0.45858 1.45016,-0.87328 2.54896,-1.01958 1.48762,-0.19802 2.23712,0.36778 4.58813,1.01958 2.6143,0.7248 3.92152,1.08723 4.58813,0.50979 1.08978,-0.94391 0.25259,-4.03185 -1.01958,-6.11751 -2.35231,-3.85649 -6.65823,-5.05069 -8.66647,-5.60772 -2.29444,-0.63637 -6.95053,-1.92778 -11.21543,0.50979 -0.57022,0.3259 -4.96811,2.91015 -4.58813,6.11751 z"
       fill="#2f2e41"
       id="path32" />
  </g>
  <g
     id="g33">
    <polygon
       points="509.48813,263.61447 498.62931,263.35751 498.02839,296.49835 505.38656,296.672 "
       fill="#ffb6b6"
       id="polygon32" />
    <path
       d="m 523.27335,311.84973 v 0 c 0,1.24303 -0.88213,2.25073 -1.97031,2.25073 h -14.60536 c 0,0 -1.43728,-5.77751 -7.29733,-8.2639 l -0.40445,8.2639 h -7.53439 l 0.91287,-13.28797 c 0,0 -2.01549,-7.10911 2.17025,-10.74308 4.18578,-3.63397 0.79546,-3.1281 0.79546,-3.1281 l 1.64661,-8.22425 11.38528,1.33884 0.0837,12.91015 5.52519,12.81452 8.10412,4.0033 c 0.72131,0.3563 1.18824,1.16816 1.18824,2.06584 l 9e-5,2e-5 z"
       fill="#2f2e41"
       id="path33"
       style="fill:#854d11;fill-opacity:1" />
  </g>
  <g
     id="g34">
    <polygon
       points="468.0408,197.10046 457.42203,199.38552 464.57426,231.75097 471.76967,230.20209 "
       fill="#ffb6b6"
       id="polygon33" />
    <path
       d="m 492.7054,240.78488 v 0 c 0.29018,1.20869 -0.33233,2.39447 -1.39044,2.6485 l -14.20181,3.40955 c 0,0 -2.7463,-5.28235 -9.02487,-6.33204 l 1.53589,8.12998 -7.32622,1.75887 -2.21436,-13.13393 c 0,0 -3.61938,-6.44218 -0.39763,-10.95289 3.2218,-4.51072 0.0432,-3.22736 0.0432,-3.22736 l -0.31879,-8.38141 11.38325,-1.35599 3.09521,12.5339 8.36401,11.17063 8.81476,2.00083 c 0.78455,0.17807 1.42811,0.85849 1.63767,1.73137 h 9e-5 z"
       fill="#2f2e41"
       id="path34"
       style="fill:#854d11;fill-opacity:1" />
  </g>
  <polygon
     points="427.8153,50.60046 408.8153,60.60046 411.8153,109.91148 404.96023,134.71359 405.8153,141.60046 472.8153,139.60046 468.8153,65.60046 469.8153,53.60046 456.8153,49.60046 450.8153,39.60046 432.8153,40.60046 "
     fill="#6c63ff"
     id="polygon34"
     style="fill:#adc3f0;fill-opacity:1" />
  <path
     d="m 406.3153,132.10046 c 0,0 -15,26.50394 0,30.25197 6.67289,1.66735 13.74158,2.79086 19.53335,3.52443 6.93438,0.87829 13.31753,-3.88171 14.46665,-10.77638 v 0 l 16,54.99999 16,-4 3,-28.62992 19.44094,19.44094 -2.44094,78.18898 18,-1 19,-85 c 0,0 1,-6 -14,-14 -15,-8 -42,-34 -42,-34 l -46,-14 -21,5 z"
     fill="#2f2e41"
     id="path35" />
  <path
     d="m 437.8153,149.60046 -26,-17 32,-34 c 0,0 18,-7 23,20 5,27 8,51 8,51 z"
     fill="#2f2e41"
     id="path36" />
  <g
     id="g39">
    <path
       d="m 384.17028,98.84862 1.13947,-7.74817 c 0.83038,-5.64667 -2.91504,-10.57465 -7.99445,-11.78772 v -3.21228 c 0,-2.76141 -2.23859,-5 -5,-5 -2.76141,0 -5,2.23859 -5,5 v 4.28491 l -19,4.03027 v -5.31519 c 0,-2.76141 -2.23859,-5 -5,-5 -2.76141,0 -5,2.23859 -5,5 v 5.05157 l -1.88892,-0.49274 c -5.64087,-1.47156 -10.09705,5.00049 -6.58862,9.65619 0.0453,0.06018 0.0914,0.12042 0.13831,0.18066 4.68341,6.02155 6.02155,11.37408 6.02155,11.37408 l -3.34534,18.06476 3.81024,37.55756 c 0.49103,4.84064 4.65723,8.46777 9.51941,8.28766 l 36.99292,-1.37012 c 4.85834,-0.17993 8.74774,-4.09729 8.88007,-8.95715 0.47125,-17.31067 0.52545,-54.98615 -7.68463,-59.60431 z"
       fill="#3f3d56"
       id="path37" />
    <path
       d="m 351.05065,163.7445 c -0.51855,0 -0.95703,-0.3999 -0.99609,-0.92529 l -2.00732,-26.7627 c -0.0415,-0.55078 0.37158,-1.03076 0.92236,-1.07178 0.5459,-0.043 1.03076,0.37158 1.07178,0.92236 l 2.00732,26.7627 c 0.0415,0.55078 -0.37158,1.03076 -0.92236,1.07178 -0.0254,0.002 -0.0508,0.003 -0.0757,0.003 z"
       fill="#ffb6b6"
       id="path38" />
    <path
       d="m 335.99596,105.87047 c -0.48779,0 -0.91504,-0.35791 -0.98779,-0.85498 -0.0801,-0.54639 0.29785,-1.0542 0.84424,-1.13428 l 48.3291,-7.08301 c 0.54639,-0.0791 1.0542,0.29785 1.13428,0.84424 0.0801,0.54639 -0.29785,1.0542 -0.84424,1.13428 l -48.3291,7.08301 c -0.0493,0.007 -0.0981,0.0107 -0.14648,0.0107 z"
       fill="#ffb6b6"
       id="path39" />
  </g>
  <g
     id="g58">
    <g
       id="g48">
      <path
         d="m 611.3077,281.68874 0.45897,-35.73419 -13.71699,-3.77326 0.41485,39.51279 -3.15586,29.19822 0.082,0.0306 c -1.32299,1.33037 -2.39645,3.45398 -2.85349,5.96407 -0.834,4.58054 0.69469,8.69516 3.41432,9.19033 2.71969,0.49517 5.60051,-2.81659 6.43445,-7.39712 0.34236,-1.88029 0.28121,-3.67702 -0.0917,-5.18213 l 0.12212,0.0456 8.89132,-31.85483 z"
         fill="#a0616a"
         id="path47" />
      <path
         d="m 586.36054,197.6896 c 0,0 6.22512,-4.76039 10.61933,2.1971 4.39421,6.95749 16.47827,42.11114 16.47827,42.11114 0,0 3.4946,16.11209 2.66276,18.49228 -0.83184,2.38019 -1.93039,23.32908 -1.93039,23.32908 l -17.16883,-3.114 0.4152,-20.21508 -16.36054,-26.11448 5.2842,-36.68605 z"
         fill="#ccc"
         id="path48"
         style="fill:#e9b8dd;fill-opacity:1" />
    </g>
    <g
       id="g50">
      <path
         d="m 471.37616,184.71155 24.06011,26.42449 12.59906,-6.60736 -27.27825,-28.58898 -17.62742,-23.48977 -0.0808,0.0336 c 0.0585,-1.87531 -0.60691,-4.15988 -1.98657,-6.30604 -2.5177,-3.91639 -6.44374,-5.87934 -8.76904,-4.38449 -2.32534,1.49489 -2.16945,5.88152 0.34828,9.79787 1.0335,1.60767 2.3048,2.8788 3.60478,3.72403 l -0.12034,0.0501 15.25014,29.34654 z"
         fill="#a0616a"
         id="path49" />
      <path
         d="m 548.32553,229.0589 c 0,0 -1.29885,7.72829 -9.25955,5.64431 -7.9607,-2.08398 -40.78975,-19.52122 -40.78975,-19.52122 0,0 -13.55314,-9.38744 -14.57025,-11.69456 -1.01711,-2.30711 -14.51606,-18.36455 -14.51606,-18.36455 l 14.67126,-9.44562 13.49731,15.05472 29.7829,7.91276 21.18412,30.41417 z"
         fill="#ccc"
         id="path50"
         style="fill:#e9b8dd;fill-opacity:1" />
    </g>
    <circle
       cx="552.8847"
       cy="158.3811"
       r="19.107679"
       fill="#a0616a"
       id="circle50" />
    <g
       id="g51">
      <polygon
         points="568.9038,447.37145 586.40675,447.37267 586.40437,493.11544 574.54525,493.11428 "
         fill="#a0616a"
         id="polygon50" />
      <path
         d="m 545.77354,492.84642 v 0 c -0.36925,0.62189 -0.56409,2.62907 -0.56409,3.35227 v 0 c 0,2.22294 1.80202,4.02503 4.02503,4.02503 h 36.72631 c 1.51648,0 2.7459,-1.22935 2.7459,-2.7459 v -1.52903 c 0,0 1.81681,-4.59554 -1.92369,-10.2598 0,0 -4.64894,4.4352 -11.59566,-2.51151 l -2.04852,-3.71106 -14.8285,10.84481 -8.21921,1.01171 c -1.7982,0.22132 -3.39246,-0.0344 -4.31743,1.52348 z"
         fill="#2f2e41"
         id="path51" />
    </g>
    <g
       id="g52">
      <polygon
         points="534.9038,447.37145 552.40675,447.37267 552.40437,493.11544 540.54525,493.11428 "
         fill="#a0616a"
         id="polygon51" />
      <path
         d="m 511.77354,492.84642 v 0 c -0.36925,0.62189 -0.56409,2.62907 -0.56409,3.35227 v 0 c 0,2.22294 1.80202,4.02503 4.02503,4.02503 h 36.72631 c 1.51648,0 2.7459,-1.22935 2.7459,-2.7459 v -1.52903 c 0,0 1.81681,-4.59554 -1.92369,-10.2598 0,0 -4.64894,4.4352 -11.59566,-2.51151 l -2.04852,-3.71106 -14.8285,10.84481 -8.21921,1.01171 c -1.7982,0.22132 -3.39246,-0.0344 -4.31743,1.52348 z"
         fill="#2f2e41"
         id="path52" />
    </g>
    <polygon
       points="534.8153,472.60046 551.8153,471.60046 557.8153,366.60046 560.3153,329.10046 570.51215,468.7225 587.8153,468.60046 594.8153,294.60046 517.8153,298.60046 "
       fill="#2f2e41"
       id="polygon52" />
    <path
       d="m 572.00463,182.60046 -29.16292,-1 -19.52641,19.41732 v 63.61024 l -7.62528,39.97244 c 0,0 51.28652,-5 61.3427,5 10.05618,10 28.1573,3 28.1573,3 l -9.05056,-52.88583 -4.02247,-61.11417 z"
       fill="#ccc"
       id="path53"
       style="fill:#e9b8dd;fill-opacity:1" />
    <path
       d="m 561.2965,177.10051 -16.2553,-3.84017 -2.50827,-9.8553 c 0,0 -0.0603,-4.64563 -2.25363,-5.16377 -2.19328,-0.51814 -6.06169,-3.7477 -6.06169,-3.7477 l 3.7477,-6.06169 c 0,0 -9.03218,-0.97593 -6.32076,-2.65107 2.71142,-1.67514 3.10368,-0.92047 3.48863,-4.96503 0.79645,-8.36865 26.40289,-7.14709 28.39191,-2.55542 0,0 3.28992,0.7772 4.96506,3.48862 1.67514,2.71142 2.5127,4.06713 3.60934,4.3262 1.09664,0.25907 1.67514,2.71142 1.67514,2.71142 0,0 3.86841,3.22956 2.5127,4.06713 -1.35571,0.83757 -2.39199,5.22412 -2.39199,5.22412 0,0 3.60934,4.3262 -4.46456,13.99724 l -4.30148,6.92005 -3.83278,-1.89464 z"
       fill="#2f2e41"
       id="path54" />
    <g
       id="g57">
      <path
         d="m 582.17028,205.20216 1.13947,-7.74817 c 0.83038,-5.64667 -2.91504,-10.57465 -7.99445,-11.78772 v -3.21228 c 0,-2.76141 -2.23859,-5 -5,-5 -2.76141,0 -5,2.23859 -5,5 v 4.28491 l -19,4.03027 v -5.31519 c 0,-2.76141 -2.23859,-5 -5,-5 -2.76141,0 -5,2.23859 -5,5 v 5.05157 l -1.88892,-0.49274 c -5.64087,-1.47156 -10.09705,5.00049 -6.58862,9.65619 0.0453,0.0602 0.0914,0.12042 0.13831,0.18066 4.68341,6.02155 6.02155,11.37408 6.02155,11.37408 l -3.34534,18.06476 3.81024,37.55756 c 0.49103,4.84064 4.65723,8.46777 9.51941,8.28766 l 36.99292,-1.37012 c 4.85834,-0.17993 8.74774,-4.09729 8.88007,-8.95715 0.47125,-17.31067 0.52545,-54.98615 -7.68463,-59.60431 z"
         fill="#3f3d56"
         id="path55" />
      <path
         d="m 549.05065,270.09803 c -0.51855,0 -0.95703,-0.3999 -0.99609,-0.92529 l -2.00732,-26.7627 c -0.0415,-0.55078 0.37158,-1.03076 0.92236,-1.07178 0.5459,-0.043 1.03076,0.37158 1.07178,0.92236 l 2.00732,26.7627 c 0.0415,0.55078 -0.37158,1.03076 -0.92236,1.07178 -0.0254,0.002 -0.0508,0.003 -0.0757,0.003 z"
         fill="#ffb6b6"
         id="path56" />
      <path
         d="m 533.99596,212.22401 c -0.48779,0 -0.91504,-0.35791 -0.98779,-0.85498 -0.0801,-0.54639 0.29785,-1.0542 0.84424,-1.13428 l 48.3291,-7.08301 c 0.54639,-0.0791 1.0542,0.29785 1.13428,0.84424 0.0801,0.54639 -0.29785,1.0542 -0.84424,1.13428 l -48.3291,7.08301 c -0.0493,0.007 -0.0981,0.0107 -0.14648,0.0107 z"
         fill="#ffb6b6"
         id="path57" />
    </g>
    <polygon
       points="522.3153,228.10046 542.42906,268.50182 536.20153,271.69909 517.3153,226.10046 "
       fill="#3f3d56"
       id="polygon57" />
  </g>
  <path
     d="m 654.04004,500.16453 v 0 c 0,0.46394 -0.37609,0.84003 -0.84003,0.84003 H 71 v -1.68005 h 582.20001 c 0.46393,0 0.84003,0.37609 0.84003,0.84003 z"
     fill="#e6e6e6"
     id="path58" />
  <path
     id="c-456"
     d="m 447.67549,143.67057 c 3.24322,3.05106 7.44638,3.85078 9.38775,1.78646 1.94137,-2.06432 0.8857,-6.21036 -2.35908,-9.26207 -1.27944,-1.23681 -2.83646,-2.14924 -4.54081,-2.66094 l -13.90491,-12.75393 -5.84596,6.65274 14.32843,11.8668 c 0.61508,1.67044 1.62134,3.16925 2.93457,4.37094 z"
     fill="#ffb6b6" />
  <path
     d="m 435.77607,77.59235 c 0,0 -16.95286,-21.11888 -23.46077,-19.4919 -8,2 -6,10 -14.27517,31.39613 -2.07245,5.3585 -4.2488,10.55186 -0.0664,14.49089 l 11.53186,10.86078 24.58396,20.7282 9.88997,-10.35319 -19.64796,-25.33688 11.4445,-22.29402 z"
     fill="#6c63ff"
     id="path59"
     style="fill:#adc3f0;fill-opacity:1" />
</svg>
